{"asset":{"version":"2.0","generator":"Blockbench 4.7.1 glTF exporter"},"scenes":[{"nodes":[28],"name":"blockbench_export"}],"scene":0,"nodes":[{"translation":[0,-0.3125,0],"name":"center","mesh":0},{"translation":[0,-0.3125,0],"name":"back","mesh":1},{"rotation":[0,0,-0.1521233861899167,0.9883615104677607],"translation":[0.27260122504762224,0.6192034853442027,0.12499999999999996],"name":"neck","mesh":2},{"rotation":[0,0,-0.19509032201612825,0.9807852804032304],"translation":[-1.150960429045635,0.5345150584360895,0.11875000000000002],"name":"tail","mesh":3},{"translation":[-0.625,-0.5,-0.125],"name":"body","children":[0,1,2,3]},{"rotation":[0,0,-0.06540312923014306,0.9978589232386035],"translation":[0.625,0.5,0.125],"name":"head","mesh":4},{"rotation":[0,0,-0.06540312923014306,0.9978589232386035],"translation":[0.625,0.5,0.125],"name":"chin","mesh":5},{"rotation":[0,0,-0.06540312923014306,0.9978589232386035],"translation":[0.625,0.5,0.125],"name":"nose","mesh":6},{"rotation":[0.1084526035253447,-0.009488373338339311,-0.0866377184907836,0.9902736537415696],"translation":[0.7320391029511745,0.6796652311033318,0.40234375000000033],"name":"horn right","mesh":7},{"rotation":[-0.1084526035253447,0.009488373338339311,-0.0866377184907836,0.9902736537415696],"translation":[0.7320391029511745,0.6796652311033318,-0.40234375000000033],"name":"horn left","mesh":8},{"translation":[-0.625,-0.5,-0.125],"name":"head","children":[5,6,7,8,9]},{"rotation":[0,0,-0.23768589232617307,0.9713420698132614],"translation":[-1.1102230246251565e-16,-0.06250000000000022,0],"name":"center up right","mesh":9},{"translation":[-0.7812499999999999,-0.07187499999999925,0.39375000000000016],"name":"centerupright","children":[11]},{"rotation":[0,0,-0.23768589232617307,0.9713420698132614],"translation":[-2.220446049250313e-16,-2.220446049250313e-16,5.551115123125783e-17],"name":"center up left","mesh":10},{"translation":[-0.7812499999999998,-0.13437499999999925,-0.39374999999999993],"name":"centerupleft","children":[13]},{"rotation":[0,0,-0.06540312923014306,0.9978589232386035],"translation":[0,0,5.551115123125783e-17],"name":"back up left","mesh":11},{"translation":[-1.46875,-0.13437499999999925,-0.33124999999999993],"name":"backupleft","children":[15]},{"rotation":[0,0,-0.06540312923014306,0.9978589232386035],"name":"back up right","mesh":12},{"translation":[-1.46875,-0.13437499999999925,0.33125000000000004],"name":"backupright","children":[17]},{"rotation":[0,0,-0.23768589232617307,0.9713420698132614],"translation":[-0.02771908853681948,0.014429644163594824,0],"name":"foot center left","mesh":13},{"translation":[-0.9410309114631805,-0.3894296441635948,-0.4],"name":"footcenterleft","children":[19]},{"translation":[0,0,-0.675],"name":"foot back left","mesh":14},{"translation":[-1.5,-0.375,0.3375],"name":"footbackleft","children":[21]},{"name":"foot back right","mesh":15},{"translation":[-1.5,-0.375,0.3375],"name":"footbackright","children":[23]},{"rotation":[0,0,-0.23768589232617307,0.9713420698132614],"translation":[-0.02771908853681948,0.014429644163594824,0],"name":"foot сenter right","mesh":16},{"translation":[-0.9410309114631803,-0.3894296441635948,0.40000000000000013],"name":"footenterright","children":[25]},{"translation":[0.625,0.5,0.125],"name":"root","children":[4,10,12,14,16,18,20,22,24,26]},{"children":[27]}],"bufferViews":[{"buffer":0,"byteOffset":0,"byteLength":288,"target":34962,"byteStride":12},{"buffer":0,"byteOffset":288,"byteLength":288,"target":34962,"byteStride":12},{"buffer":0,"byteOffset":576,"byteLength":192,"target":34962,"byteStride":8},{"buffer":0,"byteOffset":768,"byteLength":72,"target":34963},{"buffer":0,"byteOffset":840,"byteLength":288,"target":34962,"byteStride":12},{"buffer":0,"byteOffset":1128,"byteLength":288,"target":34962,"byteStride":12},{"buffer":0,"byteOffset":1416,"byteLength":192,"target":34962,"byteStride":8},{"buffer":0,"byteOffset":1608,"byteLength":72,"target":34963},{"buffer":0,"byteOffset":1680,"byteLength":288,"target":34962,"byteStride":12},{"buffer":0,"byteOffset":1968,"byteLength":288,"target":34962,"byteStride":12},{"buffer":0,"byteOffset":2256,"byteLength":192,"target":34962,"byteStride":8},{"buffer":0,"byteOffset":2448,"byteLength":72,"target":34963},{"buffer":0,"byteOffset":2520,"byteLength":288,"target":34962,"byteStride":12},{"buffer":0,"byteOffset":2808,"byteLength":288,"target":34962,"byteStride":12},{"buffer":0,"byteOffset":3096,"byteLength":192,"target":34962,"byteStride":8},{"buffer":0,"byteOffset":3288,"byteLength":72,"target":34963},{"buffer":0,"byteOffset":3360,"byteLength":288,"target":34962,"byteStride":12},{"buffer":0,"byteOffset":3648,"byteLength":288,"target":34962,"byteStride":12},{"buffer":0,"byteOffset":3936,"byteLength":192,"target":34962,"byteStride":8},{"buffer":0,"byteOffset":4128,"byteLength":72,"target":34963},{"buffer":0,"byteOffset":4200,"byteLength":288,"target":34962,"byteStride":12},{"buffer":0,"byteOffset":4488,"byteLength":288,"target":34962,"byteStride":12},{"buffer":0,"byteOffset":4776,"byteLength":192,"target":34962,"byteStride":8},{"buffer":0,"byteOffset":4968,"byteLength":72,"target":34963},{"buffer":0,"byteOffset":5040,"byteLength":288,"target":34962,"byteStride":12},{"buffer":0,"byteOffset":5328,"byteLength":288,"target":34962,"byteStride":12},{"buffer":0,"byteOffset":5616,"byteLength":192,"target":34962,"byteStride":8},{"buffer":0,"byteOffset":5808,"byteLength":72,"target":34963},{"buffer":0,"byteOffset":5880,"byteLength":2016,"target":34962,"byteStride":12},{"buffer":0,"byteOffset":7896,"byteLength":2016,"target":34962,"byteStride":12},{"buffer":0,"byteOffset":9912,"byteLength":1344,"target":34962,"byteStride":8},{"buffer":0,"byteOffset":11256,"byteLength":504,"target":34963},{"buffer":0,"byteOffset":11760,"byteLength":2016,"target":34962,"byteStride":12},{"buffer":0,"byteOffset":13776,"byteLength":2016,"target":34962,"byteStride":12},{"buffer":0,"byteOffset":15792,"byteLength":1344,"target":34962,"byteStride":8},{"buffer":0,"byteOffset":17136,"byteLength":504,"target":34963},{"buffer":0,"byteOffset":17640,"byteLength":288,"target":34962,"byteStride":12},{"buffer":0,"byteOffset":17928,"byteLength":288,"target":34962,"byteStride":12},{"buffer":0,"byteOffset":18216,"byteLength":192,"target":34962,"byteStride":8},{"buffer":0,"byteOffset":18408,"byteLength":72,"target":34963},{"buffer":0,"byteOffset":18480,"byteLength":288,"target":34962,"byteStride":12},{"buffer":0,"byteOffset":18768,"byteLength":288,"target":34962,"byteStride":12},{"buffer":0,"byteOffset":19056,"byteLength":192,"target":34962,"byteStride":8},{"buffer":0,"byteOffset":19248,"byteLength":72,"target":34963},{"buffer":0,"byteOffset":19320,"byteLength":288,"target":34962,"byteStride":12},{"buffer":0,"byteOffset":19608,"byteLength":288,"target":34962,"byteStride":12},{"buffer":0,"byteOffset":19896,"byteLength":192,"target":34962,"byteStride":8},{"buffer":0,"byteOffset":20088,"byteLength":72,"target":34963},{"buffer":0,"byteOffset":20160,"byteLength":288,"target":34962,"byteStride":12},{"buffer":0,"byteOffset":20448,"byteLength":288,"target":34962,"byteStride":12},{"buffer":0,"byteOffset":20736,"byteLength":192,"target":34962,"byteStride":8},{"buffer":0,"byteOffset":20928,"byteLength":72,"target":34963},{"buffer":0,"byteOffset":21000,"byteLength":288,"target":34962,"byteStride":12},{"buffer":0,"byteOffset":21288,"byteLength":288,"target":34962,"byteStride":12},{"buffer":0,"byteOffset":21576,"byteLength":192,"target":34962,"byteStride":8},{"buffer":0,"byteOffset":21768,"byteLength":72,"target":34963},{"buffer":0,"byteOffset":21840,"byteLength":288,"target":34962,"byteStride":12},{"buffer":0,"byteOffset":22128,"byteLength":288,"target":34962,"byteStride":12},{"buffer":0,"byteOffset":22416,"byteLength":192,"target":34962,"byteStride":8},{"buffer":0,"byteOffset":22608,"byteLength":72,"target":34963},{"buffer":0,"byteOffset":22680,"byteLength":288,"target":34962,"byteStride":12},{"buffer":0,"byteOffset":22968,"byteLength":288,"target":34962,"byteStride":12},{"buffer":0,"byteOffset":23256,"byteLength":192,"target":34962,"byteStride":8},{"buffer":0,"byteOffset":23448,"byteLength":72,"target":34963},{"buffer":0,"byteOffset":23520,"byteLength":288,"target":34962,"byteStride":12},{"buffer":0,"byteOffset":23808,"byteLength":288,"target":34962,"byteStride":12},{"buffer":0,"byteOffset":24096,"byteLength":192,"target":34962,"byteStride":8},{"buffer":0,"byteOffset":24288,"byteLength":72,"target":34963},{"buffer":0,"byteOffset":24360,"byteLength":12},{"buffer":0,"byteOffset":24372,"byteLength":48},{"buffer":0,"byteOffset":24420,"byteLength":12},{"buffer":0,"byteOffset":24432,"byteLength":36},{"buffer":0,"byteOffset":24468,"byteLength":12},{"buffer":0,"byteOffset":24480,"byteLength":48},{"buffer":0,"byteOffset":24528,"byteLength":12},{"buffer":0,"byteOffset":24540,"byteLength":36},{"buffer":0,"byteOffset":24576,"byteLength":12},{"buffer":0,"byteOffset":24588,"byteLength":48},{"buffer":0,"byteOffset":24636,"byteLength":12},{"buffer":0,"byteOffset":24648,"byteLength":36},{"buffer":0,"byteOffset":24684,"byteLength":12},{"buffer":0,"byteOffset":24696,"byteLength":48},{"buffer":0,"byteOffset":24744,"byteLength":12},{"buffer":0,"byteOffset":24756,"byteLength":36},{"buffer":0,"byteOffset":24792,"byteLength":12},{"buffer":0,"byteOffset":24804,"byteLength":48},{"buffer":0,"byteOffset":24852,"byteLength":12},{"buffer":0,"byteOffset":24864,"byteLength":36},{"buffer":0,"byteOffset":24900,"byteLength":12},{"buffer":0,"byteOffset":24912,"byteLength":48},{"buffer":0,"byteOffset":24960,"byteLength":12},{"buffer":0,"byteOffset":24972,"byteLength":36},{"buffer":0,"byteOffset":25008,"byteLength":12},{"buffer":0,"byteOffset":25020,"byteLength":48},{"buffer":0,"byteOffset":25068,"byteLength":12},{"buffer":0,"byteOffset":25080,"byteLength":36},{"buffer":0,"byteOffset":25116,"byteLength":12},{"buffer":0,"byteOffset":25128,"byteLength":48},{"buffer":0,"byteOffset":25176,"byteLength":12},{"buffer":0,"byteOffset":25188,"byteLength":36}],"buffers":[{"byteLength":25224,"uri":"data:application/octet-stream;base64,"}],"accessors":[{"bufferView":0,"componentType":5126,"count":24,"max":[0.125,1.375,0.5],"min":[-0.5,0.625,-0.25],"type":"VEC3"},{"bufferView":1,"componentType":5126,"count":24,"max":[1,1,1],"min":[-1,-1,-1],"type":"VEC3"},{"bufferView":2,"componentType":5126,"count":24,"max":[1,1],"min":[0,0],"type":"VEC2"},{"bufferView":3,"componentType":5123,"count":36,"max":[23],"min":[0],"type":"SCALAR"},{"bufferView":4,"componentType":5126,"count":24,"max":[-0.5,1.125,0.4375],"min":[-1.0625,0.625,-0.1875],"type":"VEC3"},{"bufferView":5,"componentType":5126,"count":24,"max":[1,1,1],"min":[-1,-1,-1],"type":"VEC3"},{"bufferView":6,"componentType":5126,"count":24,"max":[1,1],"min":[0,0],"type":"VEC2"},{"bufferView":7,"componentType":5123,"count":36,"max":[23],"min":[0],"type":"SCALAR"},{"bufferView":8,"componentType":5126,"count":24,"max":[0.3125,0.28125,0.25],"min":[-0.3125,-0.28125,-0.25],"type":"VEC3"},{"bufferView":9,"componentType":5126,"count":24,"max":[1,1,1],"min":[-1,-1,-1],"type":"VEC3"},{"bufferView":10,"componentType":5126,"count":24,"max":[1,1],"min":[0,0],"type":"VEC2"},{"bufferView":11,"componentType":5123,"count":36,"max":[23],"min":[0],"type":"SCALAR"},{"bufferView":12,"componentType":5126,"count":24,"max":[0.02812499925494194,0.3125,0.04374999925494194],"min":[-0.02812499925494194,-0.0625,-0.04374999925494194],"type":"VEC3"},{"bufferView":13,"componentType":5126,"count":24,"max":[1,1,1],"min":[-1,-1,-1],"type":"VEC3"},{"bufferView":14,"componentType":5126,"count":24,"max":[0.125,0.125],"min":[0,0],"type":"VEC2"},{"bufferView":15,"componentType":5123,"count":36,"max":[23],"min":[0],"type":"SCALAR"},{"bufferView":16,"componentType":5126,"count":24,"max":[0.1875,0.1875,0.1875],"min":[-0.1875,-0.1875,-0.1875],"type":"VEC3"},{"bufferView":17,"componentType":5126,"count":24,"max":[1,1,1],"min":[-1,-1,-1],"type":"VEC3"},{"bufferView":18,"componentType":5126,"count":24,"max":[1,1],"min":[0,0],"type":"VEC2"},{"bufferView":19,"componentType":5123,"count":36,"max":[23],"min":[0],"type":"SCALAR"},{"bufferView":20,"componentType":5126,"count":24,"max":[0.25,-0.125,0.09375],"min":[0,-0.25,-0.09375],"type":"VEC3"},{"bufferView":21,"componentType":5126,"count":24,"max":[1,1,1],"min":[-1,-1,-1],"type":"VEC3"},{"bufferView":22,"componentType":5126,"count":24,"max":[1,1],"min":[0,0],"type":"VEC2"},{"bufferView":23,"componentType":5123,"count":36,"max":[23],"min":[0],"type":"SCALAR"},{"bufferView":24,"componentType":5126,"count":24,"max":[0.3125,-0.0625,0.125],"min":[0.0625,-0.1875,-0.125],"type":"VEC3"},{"bufferView":25,"componentType":5126,"count":24,"max":[1,1,1],"min":[-1,-1,-1],"type":"VEC3"},{"bufferView":26,"componentType":5126,"count":24,"max":[1,1],"min":[0,0],"type":"VEC2"},{"bufferView":27,"componentType":5123,"count":36,"max":[23],"min":[0],"type":"SCALAR"},{"bufferView":28,"componentType":5126,"count":168,"max":[0.03437500074505806,0.051538825035095215,0.12265624850988388],"min":[-0.03437500074505806,-0.1109611764550209,-0.08984375],"type":"VEC3"},{"bufferView":29,"componentType":5126,"count":168,"max":[1,1,1],"min":[-1,-1,-1],"type":"VEC3"},{"bufferView":30,"componentType":5126,"count":168,"max":[1,1],"min":[0,0],"type":"VEC2"},{"bufferView":31,"componentType":5123,"count":252,"max":[167],"min":[0],"type":"SCALAR"},{"bufferView":32,"componentType":5126,"count":168,"max":[0.03437500074505806,-0.01096117403358221,0.33984375],"min":[-0.03437500074505806,-0.1734611690044403,0.12734374403953552],"type":"VEC3"},{"bufferView":33,"componentType":5126,"count":168,"max":[1,1,1],"min":[-1,-1,-1],"type":"VEC3"},{"bufferView":34,"componentType":5126,"count":168,"max":[1,1],"min":[0,0],"type":"VEC2"},{"bufferView":35,"componentType":5123,"count":252,"max":[167],"min":[0],"type":"SCALAR"},{"bufferView":36,"componentType":5126,"count":24,"max":[0.15625,0.19687500596046448,0.125],"min":[-0.15625,-0.19687500596046448,-0.125],"type":"VEC3"},{"bufferView":37,"componentType":5126,"count":24,"max":[1,1,1],"min":[-1,-1,-1],"type":"VEC3"},{"bufferView":38,"componentType":5126,"count":24,"max":[1,1],"min":[0,0],"type":"VEC2"},{"bufferView":39,"componentType":5123,"count":36,"max":[23],"min":[0],"type":"SCALAR"},{"bufferView":40,"componentType":5126,"count":24,"max":[0.15625,0.19687500596046448,0.125],"min":[-0.15625,-0.19687500596046448,-0.125],"type":"VEC3"},{"bufferView":41,"componentType":5126,"count":24,"max":[1,1,1],"min":[-1,-1,-1],"type":"VEC3"},{"bufferView":42,"componentType":5126,"count":24,"max":[1,1],"min":[0,0],"type":"VEC2"},{"bufferView":43,"componentType":5123,"count":36,"max":[23],"min":[0],"type":"SCALAR"},{"bufferView":44,"componentType":5126,"count":24,"max":[0.15625,0.13437500596046448,0.125],"min":[-0.15625,-0.13437500596046448,-0.125],"type":"VEC3"},{"bufferView":45,"componentType":5126,"count":24,"max":[1,1,1],"min":[-1,-1,-1],"type":"VEC3"},{"bufferView":46,"componentType":5126,"count":24,"max":[1,1],"min":[0,0],"type":"VEC2"},{"bufferView":47,"componentType":5123,"count":36,"max":[23],"min":[0],"type":"SCALAR"},{"bufferView":48,"componentType":5126,"count":24,"max":[0.15625,0.13437500596046448,0.125],"min":[-0.15625,-0.13437500596046448,-0.125],"type":"VEC3"},{"bufferView":49,"componentType":5126,"count":24,"max":[1,1,1],"min":[-1,-1,-1],"type":"VEC3"},{"bufferView":50,"componentType":5126,"count":24,"max":[1,1],"min":[0,0],"type":"VEC2"},{"bufferView":51,"componentType":5123,"count":36,"max":[23],"min":[0],"type":"SCALAR"},{"bufferView":52,"componentType":5126,"count":24,"max":[0.125,0.125,0.0625],"min":[-0.0625,-0.125,-0.0625],"type":"VEC3"},{"bufferView":53,"componentType":5126,"count":24,"max":[1,1,1],"min":[-1,-1,-1],"type":"VEC3"},{"bufferView":54,"componentType":5126,"count":24,"max":[0.125,0.125],"min":[0,0],"type":"VEC2"},{"bufferView":55,"componentType":5123,"count":36,"max":[23],"min":[0],"type":"SCALAR"},{"bufferView":56,"componentType":5126,"count":24,"max":[0.07500000298023224,0.125,0.0625],"min":[-0.11249999701976776,-0.125,-0.0625],"type":"VEC3"},{"bufferView":57,"componentType":5126,"count":24,"max":[1,1,1],"min":[-1,-1,-1],"type":"VEC3"},{"bufferView":58,"componentType":5126,"count":24,"max":[0.125,0.125],"min":[0,0],"type":"VEC2"},{"bufferView":59,"componentType":5123,"count":36,"max":[23],"min":[0],"type":"SCALAR"},{"bufferView":60,"componentType":5126,"count":24,"max":[0.09375,0.125,0.0625],"min":[-0.09375,-0.125,-0.0625],"type":"VEC3"},{"bufferView":61,"componentType":5126,"count":24,"max":[1,1,1],"min":[-1,-1,-1],"type":"VEC3"},{"bufferView":62,"componentType":5126,"count":24,"max":[0.125,0.125],"min":[0,0],"type":"VEC2"},{"bufferView":63,"componentType":5123,"count":36,"max":[23],"min":[0],"type":"SCALAR"},{"bufferView":64,"componentType":5126,"count":24,"max":[0.125,0.125,0.0625],"min":[-0.0625,-0.125,-0.0625],"type":"VEC3"},{"bufferView":65,"componentType":5126,"count":24,"max":[1,1,1],"min":[-1,-1,-1],"type":"VEC3"},{"bufferView":66,"componentType":5126,"count":24,"max":[0.125,0.125],"min":[0,0],"type":"VEC2"},{"bufferView":67,"componentType":5123,"count":36,"max":[23],"min":[0],"type":"SCALAR"},{"bufferView":68,"componentType":5126,"count":3,"max":[0.5],"min":[0],"type":"SCALAR"},{"bufferView":69,"componentType":5126,"count":3,"max":[0,0,0.44228869676589966,1],"min":[0,0,0,0.8968727588653564],"type":"VEC4"},{"bufferView":70,"componentType":5126,"count":3,"max":[0.5],"min":[0],"type":"SCALAR"},{"bufferView":71,"componentType":5126,"count":3,"max":[-0.78125,-0.00937500037252903,0.39375001192092896],"min":[-0.78125,-0.07187499850988388,0.39375001192092896],"type":"VEC3"},{"bufferView":72,"componentType":5126,"count":3,"max":[0.5],"min":[0],"type":"SCALAR"},{"bufferView":73,"componentType":5126,"count":3,"max":[0,0,0.44228869676589966,1],"min":[0,0,0,0.8968727588653564],"type":"VEC4"},{"bufferView":74,"componentType":5126,"count":3,"max":[0.5],"min":[0],"type":"SCALAR"},{"bufferView":75,"componentType":5126,"count":3,"max":[-0.78125,-0.07187499850988388,-0.39375001192092896],"min":[-0.78125,-0.13437500596046448,-0.39375001192092896],"type":"VEC3"},{"bufferView":76,"componentType":5126,"count":3,"max":[0.5],"min":[0],"type":"SCALAR"},{"bufferView":77,"componentType":5126,"count":3,"max":[0,0,0,1],"min":[0,0,-0.3214394748210907,0.9469301104545593],"type":"VEC4"},{"bufferView":78,"componentType":5126,"count":3,"max":[0.5],"min":[0],"type":"SCALAR"},{"bufferView":79,"componentType":5126,"count":3,"max":[-1.46875,-0.13437500596046448,-0.33125001192092896],"min":[-1.46875,-0.19687500596046448,-0.33125001192092896],"type":"VEC3"},{"bufferView":80,"componentType":5126,"count":3,"max":[0.5],"min":[0],"type":"SCALAR"},{"bufferView":81,"componentType":5126,"count":3,"max":[0,0,0,1],"min":[0,0,-0.3214394748210907,0.9469301104545593],"type":"VEC4"},{"bufferView":82,"componentType":5126,"count":3,"max":[0.5],"min":[0],"type":"SCALAR"},{"bufferView":83,"componentType":5126,"count":3,"max":[-1.46875,-0.13437500596046448,0.33125001192092896],"min":[-1.46875,-0.19687500596046448,0.33125001192092896],"type":"VEC3"},{"bufferView":84,"componentType":5126,"count":3,"max":[0.5],"min":[0],"type":"SCALAR"},{"bufferView":85,"componentType":5126,"count":3,"max":[0,0,0.44228869676589966,1],"min":[0,0,0,0.8968727588653564],"type":"VEC4"},{"bufferView":86,"componentType":5126,"count":3,"max":[0.5],"min":[0],"type":"SCALAR"},{"bufferView":87,"componentType":5126,"count":3,"max":[-0.6910309195518494,-0.36442965269088745,0.4000000059604645],"min":[-0.9410309195518494,-0.38942965865135193,0.4000000059604645],"type":"VEC3"},{"bufferView":88,"componentType":5126,"count":3,"max":[0.5],"min":[0],"type":"SCALAR"},{"bufferView":89,"componentType":5126,"count":3,"max":[0,0,0.44228869676589966,1],"min":[0,0,0,0.8968727588653564],"type":"VEC4"},{"bufferView":90,"componentType":5126,"count":3,"max":[0.5],"min":[0],"type":"SCALAR"},{"bufferView":91,"componentType":5126,"count":3,"max":[-0.6910309195518494,-0.36442965269088745,-0.4000000059604645],"min":[-0.9410309195518494,-0.38942965865135193,-0.4000000059604645],"type":"VEC3"},{"bufferView":92,"componentType":5126,"count":3,"max":[0.5],"min":[0],"type":"SCALAR"},{"bufferView":93,"componentType":5126,"count":3,"max":[0,0,0,1],"min":[0,0,-0.40274667739868164,0.9153114557266235],"type":"VEC4"},{"bufferView":94,"componentType":5126,"count":3,"max":[0.5],"min":[0],"type":"SCALAR"},{"bufferView":95,"componentType":5126,"count":3,"max":[-1.5,-0.375,0.3375000059604645],"min":[-1.625,-0.375,0.3375000059604645],"type":"VEC3"},{"bufferView":96,"componentType":5126,"count":3,"max":[0.5],"min":[0],"type":"SCALAR"},{"bufferView":97,"componentType":5126,"count":3,"max":[0,0,0,1],"min":[0,0,-0.40274667739868164,0.9153114557266235],"type":"VEC4"},{"bufferView":98,"componentType":5126,"count":3,"max":[0.5],"min":[0],"type":"SCALAR"},{"bufferView":99,"componentType":5126,"count":3,"max":[-1.5,-0.375,0.3375000059604645],"min":[-1.625,-0.375,0.3375000059604645],"type":"VEC3"}],"materials":[{"pbrMetallicRoughness":{"metallicFactor":0,"roughnessFactor":1},"alphaMode":"MASK","alphaCutoff":0.05,"doubleSided":true}],"meshes":[{"primitives":[{"mode":4,"attributes":{"POSITION":0,"NORMAL":1,"TEXCOORD_0":2},"indices":3,"material":0}]},{"primitives":[{"mode":4,"attributes":{"POSITION":4,"NORMAL":5,"TEXCOORD_0":6},"indices":7,"material":0}]},{"primitives":[{"mode":4,"attributes":{"POSITION":8,"NORMAL":9,"TEXCOORD_0":10},"indices":11,"material":0}]},{"primitives":[{"mode":4,"attributes":{"POSITION":12,"NORMAL":13,"TEXCOORD_0":14},"indices":15,"material":0}]},{"primitives":[{"mode":4,"attributes":{"POSITION":16,"NORMAL":17,"TEXCOORD_0":18},"indices":19,"material":0}]},{"primitives":[{"mode":4,"attributes":{"POSITION":20,"NORMAL":21,"TEXCOORD_0":22},"indices":23,"material":0}]},{"primitives":[{"mode":4,"attributes":{"POSITION":24,"NORMAL":25,"TEXCOORD_0":26},"indices":27,"material":0}]},{"primitives":[{"mode":4,"attributes":{"POSITION":28,"NORMAL":29,"TEXCOORD_0":30},"indices":31,"material":0}]},{"primitives":[{"mode":4,"attributes":{"POSITION":32,"NORMAL":33,"TEXCOORD_0":34},"indices":35,"material":0}]},{"primitives":[{"mode":4,"attributes":{"POSITION":36,"NORMAL":37,"TEXCOORD_0":38},"indices":39,"material":0}]},{"primitives":[{"mode":4,"attributes":{"POSITION":40,"NORMAL":41,"TEXCOORD_0":42},"indices":43,"material":0}]},{"primitives":[{"mode":4,"attributes":{"POSITION":44,"NORMAL":45,"TEXCOORD_0":46},"indices":47,"material":0}]},{"primitives":[{"mode":4,"attributes":{"POSITION":48,"NORMAL":49,"TEXCOORD_0":50},"indices":51,"material":0}]},{"primitives":[{"mode":4,"attributes":{"POSITION":52,"NORMAL":53,"TEXCOORD_0":54},"indices":55,"material":0}]},{"primitives":[{"mode":4,"attributes":{"POSITION":56,"NORMAL":57,"TEXCOORD_0":58},"indices":59,"material":0}]},{"primitives":[{"mode":4,"attributes":{"POSITION":60,"NORMAL":61,"TEXCOORD_0":62},"indices":63,"material":0}]},{"primitives":[{"mode":4,"attributes":{"POSITION":64,"NORMAL":65,"TEXCOORD_0":66},"indices":67,"material":0}]}],"animations":[{"name":"animation.run","samplers":[{"input":68,"output":69,"interpolation":"LINEAR"},{"input":70,"output":71,"interpolation":"LINEAR"},{"input":72,"output":73,"interpolation":"LINEAR"},{"input":74,"output":75,"interpolation":"LINEAR"},{"input":76,"output":77,"interpolation":"LINEAR"},{"input":78,"output":79,"interpolation":"LINEAR"},{"input":80,"output":81,"interpolation":"LINEAR"},{"input":82,"output":83,"interpolation":"LINEAR"},{"input":84,"output":85,"interpolation":"LINEAR"},{"input":86,"output":87,"interpolation":"LINEAR"},{"input":88,"output":89,"interpolation":"LINEAR"},{"input":90,"output":91,"interpolation":"LINEAR"},{"input":92,"output":93,"interpolation":"LINEAR"},{"input":94,"output":95,"interpolation":"LINEAR"},{"input":96,"output":97,"interpolation":"LINEAR"},{"input":98,"output":99,"interpolation":"LINEAR"}],"channels":[{"sampler":0,"target":{"node":12,"path":"rotation"}},{"sampler":1,"target":{"node":12,"path":"translation"}},{"sampler":2,"target":{"node":14,"path":"rotation"}},{"sampler":3,"target":{"node":14,"path":"translation"}},{"sampler":4,"target":{"node":16,"path":"rotation"}},{"sampler":5,"target":{"node":16,"path":"translation"}},{"sampler":6,"target":{"node":18,"path":"rotation"}},{"sampler":7,"target":{"node":18,"path":"translation"}},{"sampler":8,"target":{"node":26,"path":"rotation"}},{"sampler":9,"target":{"node":26,"path":"translation"}},{"sampler":10,"target":{"node":20,"path":"rotation"}},{"sampler":11,"target":{"node":20,"path":"translation"}},{"sampler":12,"target":{"node":22,"path":"rotation"}},{"sampler":13,"target":{"node":22,"path":"translation"}},{"sampler":14,"target":{"node":24,"path":"rotation"}},{"sampler":15,"target":{"node":24,"path":"translation"}}]}]}