{"asset":{"version":"2.0","generator":"Blockbench 4.7.2 glTF exporter"},"scenes":[{"nodes":[15],"name":"blockbench_export"}],"scene":0,"nodes":[{"translation":[0,0.03125,-0.015625],"name":"cube","mesh":0},{"translation":[0.125,0.59375,0.328125],"name":"cloth","children":[0]},{"translation":[-0.125,-0.45625000000000004,-0.125],"name":"cube","mesh":1},{"translation":[0.125,0.95625,0.125],"name":"head","children":[2]},{"translation":[-0.125,-0.78125,-0.125],"name":"cube","mesh":2},{"translation":[0.125,0.78125,0.125],"name":"body","children":[4]},{"translation":[0,0.0625,-0.05],"name":"cube","mesh":3},{"translation":[0.125,0.90625,-0.0125],"name":"arm_left","children":[6]},{"translation":[0,0.0625,0],"name":"cube","mesh":4},{"translation":[0.125,0.90625,0.3125],"name":"arm_right","children":[8]},{"translation":[0,-0.03125,0],"name":"cube","mesh":5},{"translation":[0.125,0.5,0.0625],"name":"leg_left","children":[10]},{"translation":[0,-0.03125,0],"name":"cube","mesh":6},{"translation":[0.125,0.5,0.1875],"name":"leg_right","children":[12]},{"translation":[-0.03125,-0.0625,0],"name":"root","children":[1,3,5,7,9,11,13]},{"children":[14]}],"bufferViews":[{"buffer":0,"byteOffset":0,"byteLength":288,"target":34962,"byteStride":12},{"buffer":0,"byteOffset":288,"byteLength":288,"target":34962,"byteStride":12},{"buffer":0,"byteOffset":576,"byteLength":192,"target":34962,"byteStride":8},{"buffer":0,"byteOffset":768,"byteLength":72,"target":34963},{"buffer":0,"byteOffset":840,"byteLength":288,"target":34962,"byteStride":12},{"buffer":0,"byteOffset":1128,"byteLength":288,"target":34962,"byteStride":12},{"buffer":0,"byteOffset":1416,"byteLength":192,"target":34962,"byteStride":8},{"buffer":0,"byteOffset":1608,"byteLength":72,"target":34963},{"buffer":0,"byteOffset":1680,"byteLength":288,"target":34962,"byteStride":12},{"buffer":0,"byteOffset":1968,"byteLength":288,"target":34962,"byteStride":12},{"buffer":0,"byteOffset":2256,"byteLength":192,"target":34962,"byteStride":8},{"buffer":0,"byteOffset":2448,"byteLength":72,"target":34963},{"buffer":0,"byteOffset":2520,"byteLength":288,"target":34962,"byteStride":12},{"buffer":0,"byteOffset":2808,"byteLength":288,"target":34962,"byteStride":12},{"buffer":0,"byteOffset":3096,"byteLength":192,"target":34962,"byteStride":8},{"buffer":0,"byteOffset":3288,"byteLength":72,"target":34963},{"buffer":0,"byteOffset":3360,"byteLength":288,"target":34962,"byteStride":12},{"buffer":0,"byteOffset":3648,"byteLength":288,"target":34962,"byteStride":12},{"buffer":0,"byteOffset":3936,"byteLength":192,"target":34962,"byteStride":8},{"buffer":0,"byteOffset":4128,"byteLength":72,"target":34963},{"buffer":0,"byteOffset":4200,"byteLength":288,"target":34962,"byteStride":12},{"buffer":0,"byteOffset":4488,"byteLength":288,"target":34962,"byteStride":12},{"buffer":0,"byteOffset":4776,"byteLength":192,"target":34962,"byteStride":8},{"buffer":0,"byteOffset":4968,"byteLength":72,"target":34963},{"buffer":0,"byteOffset":5040,"byteLength":288,"target":34962,"byteStride":12},{"buffer":0,"byteOffset":5328,"byteLength":288,"target":34962,"byteStride":12},{"buffer":0,"byteOffset":5616,"byteLength":192,"target":34962,"byteStride":8},{"buffer":0,"byteOffset":5808,"byteLength":72,"target":34963},{"buffer":0,"byteOffset":5880,"byteLength":28},{"buffer":0,"byteOffset":5908,"byteLength":112},{"buffer":0,"byteOffset":6020,"byteLength":28},{"buffer":0,"byteOffset":6048,"byteLength":84},{"buffer":0,"byteOffset":6132,"byteLength":16},{"buffer":0,"byteOffset":6148,"byteLength":64},{"buffer":0,"byteOffset":6212,"byteLength":16},{"buffer":0,"byteOffset":6228,"byteLength":64},{"buffer":0,"byteOffset":6292,"byteLength":20},{"buffer":0,"byteOffset":6312,"byteLength":80},{"buffer":0,"byteOffset":6392,"byteLength":20},{"buffer":0,"byteOffset":6412,"byteLength":80},{"buffer":0,"byteOffset":6492,"byteLength":24},{"buffer":0,"byteOffset":6516,"byteLength":96},{"buffer":0,"byteOffset":6612,"byteLength":24},{"buffer":0,"byteOffset":6636,"byteLength":96},{"buffer":0,"byteOffset":6732,"byteLength":12},{"buffer":0,"byteOffset":6744,"byteLength":48},{"buffer":0,"byteOffset":6792,"byteLength":12},{"buffer":0,"byteOffset":6804,"byteLength":36},{"buffer":0,"byteOffset":6840,"byteLength":12},{"buffer":0,"byteOffset":6852,"byteLength":48},{"buffer":0,"byteOffset":6900,"byteLength":12},{"buffer":0,"byteOffset":6912,"byteLength":36},{"buffer":0,"byteOffset":6948,"byteLength":12},{"buffer":0,"byteOffset":6960,"byteLength":36},{"buffer":0,"byteOffset":6996,"byteLength":12},{"buffer":0,"byteOffset":7008,"byteLength":48},{"buffer":0,"byteOffset":7056,"byteLength":12},{"buffer":0,"byteOffset":7068,"byteLength":36},{"buffer":0,"byteOffset":7104,"byteLength":12},{"buffer":0,"byteOffset":7116,"byteLength":36},{"buffer":0,"byteOffset":7152,"byteLength":4},{"buffer":0,"byteOffset":7156,"byteLength":16},{"buffer":0,"byteOffset":7172,"byteLength":4},{"buffer":0,"byteOffset":7176,"byteLength":16},{"buffer":0,"byteOffset":7192,"byteLength":12},{"buffer":0,"byteOffset":7204,"byteLength":48},{"buffer":0,"byteOffset":7252,"byteLength":12},{"buffer":0,"byteOffset":7264,"byteLength":48}],"buffers":[{"byteLength":7312,"uri":"data:application/octet-stream;base64,"}],"accessors":[{"bufferView":0,"componentType":5126,"count":24,"max":[0,-0.03125,0.41874998807907104],"min":[0,-0.375,0.01875000074505806],"type":"VEC3"},{"bufferView":1,"componentType":5126,"count":24,"max":[1,0,0],"min":[-1,0,0],"type":"VEC3"},{"bufferView":2,"componentType":5126,"count":24,"max":[0.8125,0.5],"min":[0,0],"type":"VEC2"},{"bufferView":3,"componentType":5123,"count":36,"max":[23],"min":[0],"type":"SCALAR"},{"bufferView":4,"componentType":5126,"count":24,"max":[0.21875,0.75,0.25],"min":[0.03125,0.5,0],"type":"VEC3"},{"bufferView":5,"componentType":5126,"count":24,"max":[1,1,1],"min":[-1,-1,-1],"type":"VEC3"},{"bufferView":6,"componentType":5126,"count":24,"max":[0.5,0.5],"min":[0,0],"type":"VEC2"},{"bufferView":7,"componentType":5123,"count":36,"max":[23],"min":[0],"type":"SCALAR"},{"bufferView":8,"componentType":5126,"count":24,"max":[0.21875,1,0.25],"min":[0.03125,0.5625,0],"type":"VEC3"},{"bufferView":9,"componentType":5126,"count":24,"max":[1,1,1],"min":[-1,-1,-1],"type":"VEC3"},{"bufferView":10,"componentType":5126,"count":24,"max":[0.5,0.5],"min":[0,0],"type":"VEC2"},{"bufferView":11,"componentType":5123,"count":36,"max":[23],"min":[0],"type":"SCALAR"},{"bufferView":12,"componentType":5126,"count":24,"max":[0.09375,0.03125,0.0625],"min":[-0.09375,-0.40625,-0.0625],"type":"VEC3"},{"bufferView":13,"componentType":5126,"count":24,"max":[1,1,1],"min":[-1,-1,-1],"type":"VEC3"},{"bufferView":14,"componentType":5126,"count":24,"max":[0.5,0.5],"min":[0,0],"type":"VEC2"},{"bufferView":15,"componentType":5123,"count":36,"max":[23],"min":[0],"type":"SCALAR"},{"bufferView":16,"componentType":5126,"count":24,"max":[0.09375,0.03125,0.0625],"min":[-0.09375,-0.40625,-0.0625],"type":"VEC3"},{"bufferView":17,"componentType":5126,"count":24,"max":[1,1,1],"min":[-1,-1,-1],"type":"VEC3"},{"bufferView":18,"componentType":5126,"count":24,"max":[0.5,0.5],"min":[0,0],"type":"VEC2"},{"bufferView":19,"componentType":5123,"count":36,"max":[23],"min":[0],"type":"SCALAR"},{"bufferView":20,"componentType":5126,"count":24,"max":[0.09375,0.09375,0.0625],"min":[-0.09375,-0.40625,-0.0625],"type":"VEC3"},{"bufferView":21,"componentType":5126,"count":24,"max":[1,1,1],"min":[-1,-1,-1],"type":"VEC3"},{"bufferView":22,"componentType":5126,"count":24,"max":[0.5,0.5],"min":[0,0],"type":"VEC2"},{"bufferView":23,"componentType":5123,"count":36,"max":[23],"min":[0],"type":"SCALAR"},{"bufferView":24,"componentType":5126,"count":24,"max":[0.09375,0.09375,0.0625],"min":[-0.09375,-0.40625,-0.0625],"type":"VEC3"},{"bufferView":25,"componentType":5126,"count":24,"max":[1,1,1],"min":[-1,-1,-1],"type":"VEC3"},{"bufferView":26,"componentType":5126,"count":24,"max":[0.5,0.5],"min":[0,0],"type":"VEC2"},{"bufferView":27,"componentType":5123,"count":36,"max":[23],"min":[0],"type":"SCALAR"},{"bufferView":28,"componentType":5126,"count":7,"max":[1.5],"min":[0],"type":"SCALAR"},{"bufferView":29,"componentType":5126,"count":7,"max":[0.2164396196603775,0,0.2164396196603775,1],"min":[-0.258819043636322,0,-0.2164396196603775,0.9659258127212524],"type":"VEC4"},{"bufferView":30,"componentType":5126,"count":7,"max":[1.5],"min":[0],"type":"SCALAR"},{"bufferView":31,"componentType":5126,"count":7,"max":[0.125,1.21875,0.653124988079071],"min":[0.125,0.59375,0.328125],"type":"VEC3"},{"bufferView":32,"componentType":5126,"count":4,"max":[1.5],"min":[0],"type":"SCALAR"},{"bufferView":33,"componentType":5126,"count":4,"max":[0,0,0.04361938685178757,0.9990482330322266],"min":[-0.10876325517892838,-0.004748706240206957,-0.06540312618017197,0.9931102395057678],"type":"VEC4"},{"bufferView":34,"componentType":5126,"count":4,"max":[1.5],"min":[0],"type":"SCALAR"},{"bufferView":35,"componentType":5126,"count":4,"max":[0.04352599382400513,0,-0.06534087657928467,0.9978589415550232],"min":[0,-0.002852844540029764,-0.06540312618017197,0.9969092011451721],"type":"VEC4"},{"bufferView":36,"componentType":5126,"count":5,"max":[1.5],"min":[0],"type":"SCALAR"},{"bufferView":37,"componentType":5126,"count":5,"max":[0.2362731695175171,0.02587611973285675,0,1],"min":[0,0,-0.31222766637802124,0.9197930693626404],"type":"VEC4"},{"bufferView":38,"componentType":5126,"count":5,"max":[1.5],"min":[0],"type":"SCALAR"},{"bufferView":39,"componentType":5126,"count":5,"max":[0,0.21281710267066956,0,1],"min":[-0.9537169337272644,0,-0.2408987581729889,0.30070579051971436],"type":"VEC4"},{"bufferView":40,"componentType":5126,"count":6,"max":[1.5],"min":[0],"type":"SCALAR"},{"bufferView":41,"componentType":5126,"count":6,"max":[0.12801817059516907,0,0,1],"min":[0,-0.02546439692378044,-0.19509032368659973,0.9723945260047913],"type":"VEC4"},{"bufferView":42,"componentType":5126,"count":6,"max":[1.5],"min":[0],"type":"SCALAR"},{"bufferView":43,"componentType":5126,"count":6,"max":[0,0,0.19509032368659973,1],"min":[-0.1226544976234436,-0.04464258626103401,0,0.9807852506637573],"type":"VEC4"},{"bufferView":44,"componentType":5126,"count":3,"max":[1],"min":[0],"type":"SCALAR"},{"bufferView":45,"componentType":5126,"count":3,"max":[0.2164396196603775,0,0,0.9914448857307434],"min":[0.13052618503570557,0,0,0.9762960076332092],"type":"VEC4"},{"bufferView":46,"componentType":5126,"count":3,"max":[1],"min":[0],"type":"SCALAR"},{"bufferView":47,"componentType":5126,"count":3,"max":[0.125,0.59375,0.328125],"min":[0.125,0.53125,0.328125],"type":"VEC3"},{"bufferView":48,"componentType":5126,"count":3,"max":[1],"min":[0],"type":"SCALAR"},{"bufferView":49,"componentType":5126,"count":3,"max":[0,0,0,1],"min":[-0.04361938685178757,0,0,0.9990482330322266],"type":"VEC4"},{"bufferView":50,"componentType":5126,"count":3,"max":[1],"min":[0],"type":"SCALAR"},{"bufferView":51,"componentType":5126,"count":3,"max":[0.125,0.956250011920929,0.125],"min":[0.125,0.893750011920929,0.125],"type":"VEC3"},{"bufferView":52,"componentType":5126,"count":3,"max":[1],"min":[0],"type":"SCALAR"},{"bufferView":53,"componentType":5126,"count":3,"max":[0.125,0.78125,0.125],"min":[0.125,0.71875,0.125],"type":"VEC3"},{"bufferView":54,"componentType":5126,"count":3,"max":[1],"min":[0],"type":"SCALAR"},{"bufferView":55,"componentType":5126,"count":3,"max":[0.06526309251785278,0.004277569241821766,0,1],"min":[0,0,-0.06526309251785278,0.9957224130630493],"type":"VEC4"},{"bufferView":56,"componentType":5126,"count":3,"max":[1],"min":[0],"type":"SCALAR"},{"bufferView":57,"componentType":5126,"count":3,"max":[0.125,0.90625,-0.012500000186264515],"min":[0.125,0.84375,-0.012500000186264515],"type":"VEC3"},{"bufferView":58,"componentType":5126,"count":3,"max":[1],"min":[0],"type":"SCALAR"},{"bufferView":59,"componentType":5126,"count":3,"max":[0.125,0.90625,0.3125],"min":[0.125,0.84375,0.3125],"type":"VEC3"},{"bufferView":60,"componentType":5126,"count":1,"max":[0],"min":[0],"type":"SCALAR"},{"bufferView":61,"componentType":5126,"count":1,"max":[0.06484359502792358,0.008536821231245995,-0.13024672865867615,0.9893221259117126],"min":[0.06484359502792358,0.008536821231245995,-0.13024672865867615,0.9893221259117126],"type":"VEC4"},{"bufferView":62,"componentType":5126,"count":1,"max":[0],"min":[0],"type":"SCALAR"},{"bufferView":63,"componentType":5126,"count":1,"max":[-0.06534087657928467,-0.002852844540029764,0.04352599382400513,0.9969092011451721],"min":[-0.06534087657928467,-0.002852844540029764,0.04352599382400513,0.9969092011451721],"type":"VEC4"},{"bufferView":64,"componentType":5126,"count":3,"max":[0.5],"min":[0],"type":"SCALAR"},{"bufferView":65,"componentType":5126,"count":3,"max":[0.04256853833794594,0.14604602754116058,-0.21638810634613037,0.9760636687278748],"min":[-0.007461130153387785,-0.02049928717315197,-0.27657222747802734,0.9488763213157654],"type":"VEC4"},{"bufferView":66,"componentType":5126,"count":3,"max":[0.5],"min":[0],"type":"SCALAR"},{"bufferView":67,"componentType":5126,"count":3,"max":[0,0.13024672865867615,0.06540312618017197,0.9978589415550232],"min":[-0.008536821231245995,0,0.06484359502792358,0.9893221259117126],"type":"VEC4"}],"materials":[{"pbrMetallicRoughness":{"metallicFactor":0,"roughnessFactor":1,"baseColorTexture":{"index":0}},"alphaMode":"MASK","alphaCutoff":0.05,"doubleSided":true},{"pbrMetallicRoughness":{"metallicFactor":0,"roughnessFactor":1},"alphaMode":"MASK","alphaCutoff":0.05,"doubleSided":true}],"textures":[{"sampler":0,"source":0,"name":"texture.png"}],"samplers":[{"magFilter":9728,"minFilter":9728,"wrapS":33071,"wrapT":33071}],"images":[{"mimeType":"image/png","uri":"data:image/png;base64,"}],"meshes":[{"primitives":[{"mode":4,"attributes":{"POSITION":0,"NORMAL":1,"TEXCOORD_0":2},"indices":3,"material":0}]},{"primitives":[{"mode":4,"attributes":{"POSITION":4,"NORMAL":5,"TEXCOORD_0":6},"indices":7,"material":1}]},{"primitives":[{"mode":4,"attributes":{"POSITION":8,"NORMAL":9,"TEXCOORD_0":10},"indices":11,"material":1}]},{"primitives":[{"mode":4,"attributes":{"POSITION":12,"NORMAL":13,"TEXCOORD_0":14},"indices":15,"material":1}]},{"primitives":[{"mode":4,"attributes":{"POSITION":16,"NORMAL":17,"TEXCOORD_0":18},"indices":19,"material":1}]},{"primitives":[{"mode":4,"attributes":{"POSITION":20,"NORMAL":21,"TEXCOORD_0":22},"indices":23,"material":1}]},{"primitives":[{"mode":4,"attributes":{"POSITION":24,"NORMAL":25,"TEXCOORD_0":26},"indices":27,"material":1}]}],"animations":[{"name":"animation.enticing","samplers":[{"input":28,"output":29,"interpolation":"LINEAR"},{"input":30,"output":31,"interpolation":"LINEAR"},{"input":32,"output":33,"interpolation":"LINEAR"},{"input":34,"output":35,"interpolation":"LINEAR"},{"input":36,"output":37,"interpolation":"LINEAR"},{"input":38,"output":39,"interpolation":"LINEAR"},{"input":40,"output":41,"interpolation":"LINEAR"},{"input":42,"output":43,"interpolation":"LINEAR"}],"channels":[{"sampler":0,"target":{"node":1,"path":"rotation"}},{"sampler":1,"target":{"node":1,"path":"translation"}},{"sampler":2,"target":{"node":3,"path":"rotation"}},{"sampler":3,"target":{"node":5,"path":"rotation"}},{"sampler":4,"target":{"node":7,"path":"rotation"}},{"sampler":5,"target":{"node":9,"path":"rotation"}},{"sampler":6,"target":{"node":11,"path":"rotation"}},{"sampler":7,"target":{"node":13,"path":"rotation"}}]},{"name":"animation.stand","samplers":[{"input":44,"output":45,"interpolation":"LINEAR"},{"input":46,"output":47,"interpolation":"LINEAR"},{"input":48,"output":49,"interpolation":"LINEAR"},{"input":50,"output":51,"interpolation":"LINEAR"},{"input":52,"output":53,"interpolation":"LINEAR"},{"input":54,"output":55,"interpolation":"LINEAR"},{"input":56,"output":57,"interpolation":"LINEAR"},{"input":58,"output":59,"interpolation":"LINEAR"},{"input":60,"output":61,"interpolation":"LINEAR"},{"input":62,"output":63,"interpolation":"LINEAR"}],"channels":[{"sampler":0,"target":{"node":1,"path":"rotation"}},{"sampler":1,"target":{"node":1,"path":"translation"}},{"sampler":2,"target":{"node":3,"path":"rotation"}},{"sampler":3,"target":{"node":3,"path":"translation"}},{"sampler":4,"target":{"node":5,"path":"translation"}},{"sampler":5,"target":{"node":7,"path":"rotation"}},{"sampler":6,"target":{"node":7,"path":"translation"}},{"sampler":7,"target":{"node":9,"path":"translation"}},{"sampler":8,"target":{"node":11,"path":"rotation"}},{"sampler":9,"target":{"node":13,"path":"rotation"}}]},{"name":"run","samplers":[{"input":64,"output":65,"interpolation":"LINEAR"},{"input":66,"output":67,"interpolation":"LINEAR"}],"channels":[{"sampler":0,"target":{"node":11,"path":"rotation"}},{"sampler":1,"target":{"node":13,"path":"rotation"}}]}]}